PathFileType	4	(X/Y/Z)	/Users/itak/Documents/Research/Walk-IL/dataset/trc/00129_00007.trc
DataRate	CameraRate	NumFrames	NumMarkers	Units	OrigDataRate	OrigDataStartFrame	OrigNumFrames
100.000000	100.000000	4	53	mm	100.000000	180	721
Frame#	Time	RPSI			LPSI			L3			STRN			T10			C7			CLAV			RBAK			LBAK			LSHO			LUPA			LAEL			LAOL			LWTS			LWPS			LFRA			LIFD			LHPS			LHTS			RSHO			RUPA			RAEL			RAOL			RWTS			RWPS			RFRA			RIFD			RHTS			RHPS			RBHD			LFHD			RFHD			LBHD			LHIP			RHIP			RASI			LASI			LKNE			LTHI			LANK			LTIP			LTOE			LMT1			LMT5			LHEE			RKNE			RTHI			RANK			RTIP			RTOE			RMT1			RMT5			RHEE			
		X1	Y1	Z1	X2	Y2	Z2	X3	Y3	Z3	X4	Y4	Z4	X5	Y5	Z5	X6	Y6	Z6	X7	Y7	Z7	X8	Y8	Z8	X9	Y9	Z9	X10	Y10	Z10	X11	Y11	Z11	X12	Y12	Z12	X13	Y13	Z13	X14	Y14	Z14	X15	Y15	Z15	X16	Y16	Z16	X17	Y17	Z17	X18	Y18	Z18	X19	Y19	Z19	X20	Y20	Z20	X21	Y21	Z21	X22	Y22	Z22	X23	Y23	Z23	X24	Y24	Z24	X25	Y25	Z25	X26	Y26	Z26	X27	Y27	Z27	X28	Y28	Z28	X29	Y29	Z29	X30	Y30	Z30	X31	Y31	Z31	X32	Y32	Z32	X33	Y33	Z33	X34	Y34	Z34	X35	Y35	Z35	X36	Y36	Z36	X37	Y37	Z37	X38	Y38	Z38	X39	Y39	Z39	X40	Y40	Z40	X41	Y41	Z41	X42	Y42	Z42	X43	Y43	Z43	X44	Y44	Z44	X45	Y45	Z45	X46	Y46	Z46	X47	Y47	Z47	X48	Y48	Z48	X49	Y49	Z49	X50	Y50	Z50	X51	Y51	Z51	X52	Y52	Z52	X53	Y53	Z53	

181	1.8	-300.2390441894531	1100.8056640625	860.0401611328125	-404.9224548339844	1111.289184570312	944.9509887695312	-348.1922302246094	1141.841674804688	907.7590942382812	-486.0890502929688	1342.48779296875	733.6611938476562	-317.7633972167969	1293.474487304688	922.9077758789062	-345.0735168457031	1586.109008789062	900.3643798828125	-465.2048034667969	1478.06005859375	761.8414306640625	-245.9806823730469	1400.817260742188	884.2984619140625	-415.2359924316406	1569.752075195312	974.684326171875	-524.8461303710938	1559.268310546875	959.2108764648438	-564.9513549804688	1433.168823242188	1028.394775390625	-596.552978515625	1217.52490234375	1049.142944335938	-510.144775390625	1198.87451171875	1056.162231445312	-660.57177734375	965.4315185546875	949.1966552734375	-622.9422607421875	933.7279663085938	1023.25341796875	-620.468505859375	1102.672241210938	1042.49560546875	-671.1514282226562	774.476318359375	920.5335083007812	-650.1791381835938	861.4349975585938	1003.721557617188	-688.3436279296875	878.3519897460938	945.8614501953125	-250.9815979003906	1561.419921875	735.3583984375	-193.9095611572266	1486.92626953125	704.696533203125	-183.8328247070312	1189.622802734375	698.4503173828125	-245.7028198242188	1191.49853515625	772.1033325195312	-316.3998107910156	963.5196533203125	592.2923583984375	-245.7643127441406	936.20263671875	626.2957763671875	-194.7248077392578	1117.42626953125	668.0390014648438	-368.571533203125	775.3456420898438	572.328125	-344.6463012695312	860.0501708984375	559.7673950195312	-278.2073974609375	841.6680297851562	590.0868530273438	-312.0606079101562	1749.953735351562	834.8634643554688	-496.0497436523438	1825.724975585938	737.6985473632812	-378.5196533203125	1814.305908203125	682.583984375	-429.1274108886719	1764.773315429688	899.7265625	-558.9152221679688	1035.666381835938	938.505126953125	-289.087890625	995.3042602539062	692.0796508789062	-378.6299133300781	1075.268798828125	656.3502807617188	-581.0484619140625	1095.794799804688	828.3059692382812	-697.60107421875	571.2933349609375	782.1990356445312	-663.1784057617188	700.5307006835938	857.9517822265625	-762.7300415039062	49.88791275024414	799.8447875976562	-725.684814453125	311.0987548828125	846.9365844726562	-843.2865600585938	103.3451843261719	592.1359252929688	-770.5648193359375	86.15943908691406	631.0988159179688	-849.486083984375	69.95368194580078	713.1094360351562	-672.6392822265625	36.93302917480469	819.6730346679688	-357.745361328125	512.0985717773438	807.993896484375	-329.5897521972656	780.9805908203125	717.1484985351562	-292.4683837890625	37.08500671386719	1001.455993652344	-337.5960693359375	380.3877258300781	847.4547729492188	-509.9259948730469	44.16002655029297	902.1941528320312	-483.9091491699219	39.27073287963867	972.4920654296875	-384.7792053222656	43.61209106445312	903.1571044921875	-274.9503784179688	44.09893798828125	1074.400756835938	
182	1.81	-307.1181030273438	1099.307495117188	855.2928466796875	-413.1676635742188	1109.918579101562	938.5244140625	-355.4601745605469	1140.588623046875	902.3078002929688	-490.6641845703125	1341.093139648438	726.1232299804688	-325.1578063964844	1292.1025390625	917.5662231445312	-352.047607421875	1584.763671875	894.8046264648438	-470.3212585449219	1476.687744140625	754.6392211914062	-252.6754913330078	1399.552368164062	880.1101684570312	-423.3723449707031	1568.311401367188	968.094970703125	-532.692138671875	1557.719970703125	951.172607421875	-573.5764770507812	1431.708129882812	1020.038269042969	-605.0963134765625	1216.0498046875	1041.103149414062	-518.6072387695312	1197.585205078125	1049.136352539062	-667.5242919921875	963.5728759765625	941.20263671875	-630.606689453125	932.1288452148438	1015.755065917969	-628.7191162109375	1101.1259765625	1034.53271484375	-677.3353881835938	772.4789428710938	912.858154296875	-657.4165649414062	859.6972045898438	996.1262817382812	-694.792236328125	876.3237915039062	937.5914916992188	-255.8238983154297	1560.1943359375	730.9987182617188	-198.4776763916016	1485.734130859375	701.0186157226562	-188.3297424316406	1188.344848632812	694.7792358398438	-250.8407287597656	1190.219360351562	767.8035888671875	-319.7030639648438	962.2083740234375	587.385498046875	-249.5156860351562	934.8645629882812	622.0569458007812	-198.9037170410156	1116.139526367188	664.3073120117188	-371.5303039550781	773.9779052734375	566.798095703125	-347.5794677734375	858.71923828125	554.5537109375	-281.4965515136719	840.3749389648438	585.5018310546875	-318.1878662109375	1748.409912109375	830.1869506835938	-500.8520812988281	1824.603881835938	730.774658203125	-382.6296691894531	1813.304321289062	677.2440795898438	-436.0567932128906	1763.134521484375	893.6571044921875	-567.014404296875	1034.569213867188	929.798095703125	-293.2431335449219	993.7901611328125	687.4696655273438	-382.2147216796875	1073.777465820312	650.4464111328125	-587.2572631835938	1094.632446289062	819.1574096679688	-703.3609008789062	570.2582397460938	773.3807373046875	-670.5946044921875	698.9660034179688	850.3717041015625	-777.999267578125	49.85295104980469	774.8994750976562	-737.3309326171875	309.9850158691406	830.9389038085938	-847.1682739257812	109.5143432617188	564.6835327148438	-776.6392211914062	90.88309478759766	607.0632934570312	-859.901611328125	72.65886688232422	684.3885498046875	-688.7815551757812	35.6796760559082	799.021484375	-362.3282775878906	510.8780517578125	804.1763916015625	-333.9300537109375	779.5943603515625	712.6963500976562	-293.0424194335938	37.84029388427734	1002.145080566406	-341.265869140625	379.4068603515625	844.8328857421875	-510.1614685058594	44.02860260009766	902.0177612304688	-484.2261352539062	39.06079864501953	972.405517578125	-384.9362182617188	43.76548767089844	903.332763671875	-275.7741088867188	45.48662948608398	1075.277954101562	
183	1.82	-314.126708984375	1097.798217773438	850.3864135742188	-421.4833984375	1108.528076171875	931.9650268554688	-362.7715454101562	1139.310668945312	896.7206420898438	-495.2752380371094	1339.679809570312	718.5576171875	-332.5752258300781	1290.677368164062	912.1231689453125	-359.0270690917969	1583.3681640625	889.1746215820312	-475.4394226074219	1475.289916992188	747.396484375	-259.42529296875	1398.224609375	875.8296508789062	-431.5066528320312	1566.810302734375	961.4285278320312	-540.5138549804688	1556.105346679688	943.0720825195312	-582.1575927734375	1430.16943359375	1011.596801757812	-613.5740356445312	1214.481079101562	1032.988403320312	-527.0015869140625	1196.219482421875	1041.983032226562	-674.4196166992188	961.6010131835938	933.22509765625	-638.0961303710938	930.4257202148438	1008.208984375	-636.8622436523438	1099.477783203125	1026.516967773438	-683.4468994140625	770.386474609375	905.2258911132812	-664.5046997070312	857.8768310546875	988.534912109375	-701.2031860351562	874.1968994140625	929.434814453125	-260.6985778808594	1558.931884765625	726.6032104492188	-203.0830841064453	1484.503051757812	697.328857421875	-192.8534851074219	1187.041870117188	691.013671875	-256.032958984375	1188.89599609375	763.39990234375	-322.9391174316406	960.7359619140625	582.5122680664062	-253.1043395996094	933.4595336914062	617.8106689453125	-203.1067810058594	1114.818237304688	660.5083618164062	-374.270263671875	772.40673828125	561.509033203125	-350.3711547851562	857.1823120117188	549.4661865234375	-284.63671875	838.9618530273438	581.0208129882812	-324.3624877929688	1746.8623046875	825.3978881835938	-505.69140625	1823.424560546875	723.7730102539062	-386.8148803710938	1812.236328125	671.8095092773438	-442.9863891601562	1761.513549804688	887.499267578125	-575.0748901367188	1033.419311523438	921.0352783203125	-297.5302124023438	992.27685546875	682.7540893554688	-385.9730224609375	1072.27685546875	644.4512939453125	-593.51416015625	1093.426025390625	809.9888916015625	-708.9678344726562	569.1880493164062	764.1744995117188	-678.0452880859375	697.3984375	842.466552734375	-791.3236083984375	50.09435653686523	751.6898803710938	-748.0775146484375	309.2095031738281	815.4140625	-849.2980346679688	114.9127655029297	539.3631591796875	-781.080810546875	94.98910522460938	585.0546875	-868.2949829101562	75.18272399902344	657.642578125	-703.1195068359375	34.77996826171875	779.9896850585938	-366.9602966308594	509.6417236328125	800.1598510742188	-338.3955383300781	778.20703125	708.0845947265625	-293.5983581542969	38.68656158447266	1002.817687988281	-344.9106750488281	378.4302368164062	842.040771484375	-510.384765625	43.88489151000977	901.8233642578125	-484.5828857421875	38.79487609863281	972.2616577148438	-385.0672302246094	43.92333602905273	903.4683837890625	-276.5679016113281	47.05947875976562	1076.087524414062	
184	1.83	-321.2535705566406	1096.30517578125	845.306396484375	-429.8274230957031	1107.162231445312	925.2738037109375	-370.1398620605469	1138.031616210938	890.9818725585938	-499.9356079101562	1338.287841796875	710.9702758789062	-340.0068969726562	1289.227416992188	906.5828247070312	-366.0062561035156	1581.947998046875	883.4780883789062	-480.5645446777344	1473.903930664062	740.1201171875	-266.2255859375	1396.8505859375	871.4479370117188	-439.6133728027344	1565.281127929688	954.69677734375	-548.296630859375	1554.470703125	934.9263305664062	-590.6973266601562	1428.595458984375	1003.074951171875	-622.0081787109375	1212.866455078125	1024.769653320312	-535.3553466796875	1194.816284179688	1034.676513671875	-681.2694702148438	959.5474853515625	925.250244140625	-645.4151000976562	928.6634521484375	1000.608520507812	-644.91796875	1097.775268554688	1018.423706054688	-689.4659423828125	768.2149047851562	897.6492309570312	-671.4566040039062	856.010009765625	980.9398193359375	-707.5911254882812	871.9988403320312	921.3924560546875	-265.6094055175781	1557.650512695312	722.171630859375	-207.7195587158203	1483.250732421875	693.6210327148438	-197.4003601074219	1185.735595703125	687.1754760742188	-261.2803344726562	1187.555419921875	758.9058227539062	-326.0877685546875	959.1324462890625	577.67138671875	-256.5270385742188	932.0147094726562	613.5760498046875	-207.3261108398438	1113.488037109375	656.6624145507812	-376.7818603515625	770.664794921875	556.4417724609375	-353.0038452148438	855.4717407226562	544.499267578125	-287.6171569824219	837.456787109375	576.6553955078125	-330.5836791992188	1745.3427734375	820.4934692382812	-510.5689697265625	1822.208251953125	716.6867065429688	-391.0652770996094	1811.124267578125	666.2697143554688	-449.9222412109375	1759.93701171875	881.2376098632812	-583.0874633789062	1032.264892578125	912.2327880859375	-301.9546508789062	990.7879638671875	677.9273071289062	-389.9201354980469	1070.795166015625	638.3533935546875	-599.8259887695312	1092.231079101562	800.8107299804688	-714.4552001953125	568.1459350585938	754.546875	-685.4567260742188	695.88818359375	834.1240844726562	-802.5733642578125	50.33600616455078	730.4882202148438	-757.8215942382812	308.6293334960938	800.4633178710938	-849.8779907226562	119.0928268432617	516.4005737304688	-783.9906005859375	98.15338134765625	565.2256469726562	-874.7046508789062	77.12570953369141	633.1828002929688	-715.4959106445312	34.08970260620117	762.7438354492188	-371.6726379394531	508.4030151367188	795.9085083007812	-342.9943237304688	776.8408813476562	703.2930908203125	-294.1169128417969	39.65262603759766	1003.461975097656	-348.5570983886719	377.4724731445312	839.045654296875	-510.5920715332031	43.73715209960938	901.6138916015625	-484.9657897949219	38.4962043762207	972.0601196289062	-385.1641235351562	44.08688735961914	903.5479736328125	-277.3107604980469	48.84131622314453	1076.78759765625	
